<svg xmlns="http://www.w3.org/2000/svg" width="788.233" height="213.455" viewBox="0 0 788.233 213.455">
  <g id="Group_30" data-name="Group 30" transform="translate(-130.384 -76.015)">
    <path id="Path_21" data-name="Path 21" d="M31.244-152.8-.642,0h117.7l5.992-28.248H38.734L46.652-65.7h76.826l5.564-26.108H52.216l6.848-32.742H142.1l5.778-28.248Zm162,69.122,8.988-43.014h31.886a66.566,66.566,0,0,1,9.416.642,22.493,22.493,0,0,1,7.918,2.568,13.958,13.958,0,0,1,5.457,5.671q2.033,3.745,2.033,9.951a20.3,20.3,0,0,1-2.889,11.021,22.781,22.781,0,0,1-7.7,7.49,36.986,36.986,0,0,1-11.021,4.28,59.54,59.54,0,0,1-13.054,1.391ZM173.982-152.8,142.1,0H175.48l12.626-59.706h31.672a49.759,49.759,0,0,1,8.988.749,16.531,16.531,0,0,1,6.955,2.889,14.225,14.225,0,0,1,4.494,5.671,22.107,22.107,0,0,1,1.6,9.095,142.332,142.332,0,0,1-.856,15.515,142.331,142.331,0,0,0-.856,15.515,29.3,29.3,0,0,0,.428,5.029q.428,2.461,1.07,5.243h32.742a31.123,31.123,0,0,1-1.712-8.025q-.428-4.6-.428-9.737,0-7.062.535-14.231t.535-12.305a41.189,41.189,0,0,0-3.21-16.585q-3.21-7.383-12.626-10.379v-.428A39.341,39.341,0,0,0,271.566-76.4a41.755,41.755,0,0,0,11.128-9.1,39.787,39.787,0,0,0,7.276-12.519,42.871,42.871,0,0,0,2.568-14.766q0-11.128-3.21-18.832a31.017,31.017,0,0,0-9.2-12.519,36.221,36.221,0,0,0-14.445-6.848,73.53,73.53,0,0,0-18.725-1.819Zm154.722,0L296.6,0h33.6l32.314-152.8ZM475.294-15.622V0H496.48l17.548-82.6H449.186l-5.35,25.038h35.31a68.154,68.154,0,0,1-5.457,13.375,36.151,36.151,0,0,1-8.346,10.379,37.654,37.654,0,0,1-11.984,6.741,49.847,49.847,0,0,1-16.585,2.461,35.344,35.344,0,0,1-15.729-3.21,29.769,29.769,0,0,1-10.7-8.667,37.432,37.432,0,0,1-6.206-12.519,53.9,53.9,0,0,1-2.033-14.98,88.145,88.145,0,0,1,3-22.363,69.835,69.835,0,0,1,9.1-20.758A49.647,49.647,0,0,1,429.819-122.3q9.523-5.885,22.363-5.885,14.124,0,22.256,5.885t8.774,20.009h33.6q0-14.124-5.136-24.289a47.689,47.689,0,0,0-13.91-16.8,59.715,59.715,0,0,0-20.544-9.844,95.646,95.646,0,0,0-25.252-3.21q-19.26,0-34.775,7.49a79.284,79.284,0,0,0-26.322,20.223A90.961,90.961,0,0,0,374.286-99.3a107.18,107.18,0,0,0-5.778,35.31q0,32.742,17.655,50.076T436.346,3.424A51.916,51.916,0,0,0,457.318-.963q10.058-4.387,17.548-14.659Zm55.64-48.364q0,32.742,17.655,50.076T598.772,3.424q20.116,0,35.631-7.6a76.464,76.464,0,0,0,26.108-20.651A92.97,92.97,0,0,0,676.668-55a115.584,115.584,0,0,0,5.564-35.952q0-16.05-4.815-28.248a56.552,56.552,0,0,0-13.589-20.544,56.069,56.069,0,0,0-21.4-12.519,88.97,88.97,0,0,0-28.034-4.173q-19.26,0-34.775,7.49A79.284,79.284,0,0,0,553.3-128.721,90.962,90.962,0,0,0,536.712-99.3,107.18,107.18,0,0,0,530.934-63.986Zm33.6,0a88.144,88.144,0,0,1,3-22.363,69.835,69.835,0,0,1,9.095-20.758A49.647,49.647,0,0,1,592.245-122.3q9.523-5.885,22.363-5.885,9.416,0,15.836,3.21a29.5,29.5,0,0,1,10.486,8.56,34.413,34.413,0,0,1,5.885,12.519,62.037,62.037,0,0,1,1.819,15.3,84.111,84.111,0,0,1-3.1,22.256,70.462,70.462,0,0,1-9.309,20.651,52.118,52.118,0,0,1-15.408,15.194q-9.2,5.885-21.614,5.885a35.344,35.344,0,0,1-15.729-3.21,29.768,29.768,0,0,1-10.7-8.667,37.433,37.433,0,0,1-6.206-12.519A53.9,53.9,0,0,1,564.532-63.986Z" transform="translate(215.564 244.102)" fill="#eee"/>
    <path id="Path_20" data-name="Path 20" d="M31.244-152.8-.642,0h117.7l5.992-28.248H38.734L46.652-65.7h76.826l5.564-26.108H52.216l6.848-32.742H142.1l5.778-28.248Zm162,69.122,8.988-43.014h31.886a66.566,66.566,0,0,1,9.416.642,22.493,22.493,0,0,1,7.918,2.568,13.958,13.958,0,0,1,5.457,5.671q2.033,3.745,2.033,9.951a20.3,20.3,0,0,1-2.889,11.021,22.781,22.781,0,0,1-7.7,7.49,36.986,36.986,0,0,1-11.021,4.28,59.54,59.54,0,0,1-13.054,1.391ZM173.982-152.8,142.1,0H175.48l12.626-59.706h31.672a49.759,49.759,0,0,1,8.988.749,16.531,16.531,0,0,1,6.955,2.889,14.225,14.225,0,0,1,4.494,5.671,22.107,22.107,0,0,1,1.6,9.095,142.332,142.332,0,0,1-.856,15.515,142.331,142.331,0,0,0-.856,15.515,29.3,29.3,0,0,0,.428,5.029q.428,2.461,1.07,5.243h32.742a31.123,31.123,0,0,1-1.712-8.025q-.428-4.6-.428-9.737,0-7.062.535-14.231t.535-12.305a41.189,41.189,0,0,0-3.21-16.585q-3.21-7.383-12.626-10.379v-.428A39.341,39.341,0,0,0,271.566-76.4a41.755,41.755,0,0,0,11.128-9.1,39.787,39.787,0,0,0,7.276-12.519,42.871,42.871,0,0,0,2.568-14.766q0-11.128-3.21-18.832a31.017,31.017,0,0,0-9.2-12.519,36.221,36.221,0,0,0-14.445-6.848,73.53,73.53,0,0,0-18.725-1.819Zm154.722,0L296.6,0h33.6l32.314-152.8ZM475.294-15.622V0H496.48l17.548-82.6H449.186l-5.35,25.038h35.31a68.154,68.154,0,0,1-5.457,13.375,36.151,36.151,0,0,1-8.346,10.379,37.654,37.654,0,0,1-11.984,6.741,49.847,49.847,0,0,1-16.585,2.461,35.344,35.344,0,0,1-15.729-3.21,29.769,29.769,0,0,1-10.7-8.667,37.432,37.432,0,0,1-6.206-12.519,53.9,53.9,0,0,1-2.033-14.98,88.145,88.145,0,0,1,3-22.363,69.835,69.835,0,0,1,9.1-20.758A49.647,49.647,0,0,1,429.819-122.3q9.523-5.885,22.363-5.885,14.124,0,22.256,5.885t8.774,20.009h33.6q0-14.124-5.136-24.289a47.689,47.689,0,0,0-13.91-16.8,59.715,59.715,0,0,0-20.544-9.844,95.646,95.646,0,0,0-25.252-3.21q-19.26,0-34.775,7.49a79.284,79.284,0,0,0-26.322,20.223A90.961,90.961,0,0,0,374.286-99.3a107.18,107.18,0,0,0-5.778,35.31q0,32.742,17.655,50.076T436.346,3.424A51.916,51.916,0,0,0,457.318-.963q10.058-4.387,17.548-14.659Zm55.64-48.364q0,32.742,17.655,50.076T598.772,3.424q20.116,0,35.631-7.6a76.464,76.464,0,0,0,26.108-20.651A92.97,92.97,0,0,0,676.668-55a115.584,115.584,0,0,0,5.564-35.952q0-16.05-4.815-28.248a56.552,56.552,0,0,0-13.589-20.544,56.069,56.069,0,0,0-21.4-12.519,88.97,88.97,0,0,0-28.034-4.173q-19.26,0-34.775,7.49A79.284,79.284,0,0,0,553.3-128.721,90.962,90.962,0,0,0,536.712-99.3,107.18,107.18,0,0,0,530.934-63.986Zm33.6,0a88.144,88.144,0,0,1,3-22.363,69.835,69.835,0,0,1,9.095-20.758A49.647,49.647,0,0,1,592.245-122.3q9.523-5.885,22.363-5.885,9.416,0,15.836,3.21a29.5,29.5,0,0,1,10.486,8.56,34.413,34.413,0,0,1,5.885,12.519,62.037,62.037,0,0,1,1.819,15.3,84.111,84.111,0,0,1-3.1,22.256,70.462,70.462,0,0,1-9.309,20.651,52.118,52.118,0,0,1-15.408,15.194q-9.2,5.885-21.614,5.885a35.344,35.344,0,0,1-15.729-3.21,29.768,29.768,0,0,1-10.7-8.667,37.433,37.433,0,0,1-6.206-12.519A53.9,53.9,0,0,1,564.532-63.986Z" transform="translate(225.44 238.102)" fill="#589bea"/>
    <path id="Path_19" data-name="Path 19" d="M31.244-152.8-.642,0h117.7l5.992-28.248H38.734L46.652-65.7h76.826l5.564-26.108H52.216l6.848-32.742H142.1l5.778-28.248Zm162,69.122,8.988-43.014h31.886a66.566,66.566,0,0,1,9.416.642,22.493,22.493,0,0,1,7.918,2.568,13.958,13.958,0,0,1,5.457,5.671q2.033,3.745,2.033,9.951a20.3,20.3,0,0,1-2.889,11.021,22.781,22.781,0,0,1-7.7,7.49,36.986,36.986,0,0,1-11.021,4.28,59.54,59.54,0,0,1-13.054,1.391ZM173.982-152.8,142.1,0H175.48l12.626-59.706h31.672a49.759,49.759,0,0,1,8.988.749,16.531,16.531,0,0,1,6.955,2.889,14.225,14.225,0,0,1,4.494,5.671,22.107,22.107,0,0,1,1.6,9.095,142.332,142.332,0,0,1-.856,15.515,142.331,142.331,0,0,0-.856,15.515,29.3,29.3,0,0,0,.428,5.029q.428,2.461,1.07,5.243h32.742a31.123,31.123,0,0,1-1.712-8.025q-.428-4.6-.428-9.737,0-7.062.535-14.231t.535-12.305a41.189,41.189,0,0,0-3.21-16.585q-3.21-7.383-12.626-10.379v-.428A39.341,39.341,0,0,0,271.566-76.4a41.755,41.755,0,0,0,11.128-9.1,39.787,39.787,0,0,0,7.276-12.519,42.871,42.871,0,0,0,2.568-14.766q0-11.128-3.21-18.832a31.017,31.017,0,0,0-9.2-12.519,36.221,36.221,0,0,0-14.445-6.848,73.53,73.53,0,0,0-18.725-1.819Zm154.722,0L296.6,0h33.6l32.314-152.8ZM475.294-15.622V0H496.48l17.548-82.6H449.186l-5.35,25.038h35.31a68.154,68.154,0,0,1-5.457,13.375,36.151,36.151,0,0,1-8.346,10.379,37.654,37.654,0,0,1-11.984,6.741,49.847,49.847,0,0,1-16.585,2.461,35.344,35.344,0,0,1-15.729-3.21,29.769,29.769,0,0,1-10.7-8.667,37.432,37.432,0,0,1-6.206-12.519,53.9,53.9,0,0,1-2.033-14.98,88.145,88.145,0,0,1,3-22.363,69.835,69.835,0,0,1,9.1-20.758A49.647,49.647,0,0,1,429.819-122.3q9.523-5.885,22.363-5.885,14.124,0,22.256,5.885t8.774,20.009h33.6q0-14.124-5.136-24.289a47.689,47.689,0,0,0-13.91-16.8,59.715,59.715,0,0,0-20.544-9.844,95.646,95.646,0,0,0-25.252-3.21q-19.26,0-34.775,7.49a79.284,79.284,0,0,0-26.322,20.223A90.961,90.961,0,0,0,374.286-99.3a107.18,107.18,0,0,0-5.778,35.31q0,32.742,17.655,50.076T436.346,3.424A51.916,51.916,0,0,0,457.318-.963q10.058-4.387,17.548-14.659Zm55.64-48.364q0,32.742,17.655,50.076T598.772,3.424q20.116,0,35.631-7.6a76.464,76.464,0,0,0,26.108-20.651A92.97,92.97,0,0,0,676.668-55a115.584,115.584,0,0,0,5.564-35.952q0-16.05-4.815-28.248a56.552,56.552,0,0,0-13.589-20.544,56.069,56.069,0,0,0-21.4-12.519,88.97,88.97,0,0,0-28.034-4.173q-19.26,0-34.775,7.49A79.284,79.284,0,0,0,553.3-128.721,90.962,90.962,0,0,0,536.712-99.3,107.18,107.18,0,0,0,530.934-63.986Zm33.6,0a88.144,88.144,0,0,1,3-22.363,69.835,69.835,0,0,1,9.095-20.758A49.647,49.647,0,0,1,592.245-122.3q9.523-5.885,22.363-5.885,9.416,0,15.836,3.21a29.5,29.5,0,0,1,10.486,8.56,34.413,34.413,0,0,1,5.885,12.519,62.037,62.037,0,0,1,1.819,15.3,84.111,84.111,0,0,1-3.1,22.256,70.462,70.462,0,0,1-9.309,20.651,52.118,52.118,0,0,1-15.408,15.194q-9.2,5.885-21.614,5.885a35.344,35.344,0,0,1-15.729-3.21,29.768,29.768,0,0,1-10.7-8.667,37.433,37.433,0,0,1-6.206-12.519A53.9,53.9,0,0,1,564.532-63.986Z" transform="translate(216.062 232.449)" fill="#f60"/>
    <rect id="Rectangle_21" data-name="Rectangle 21" width="704.052" height="12.244" transform="translate(130.384 277.226)" fill="#eee"/>
    <rect id="Rectangle_19" data-name="Rectangle 19" width="704.052" height="12.244" transform="translate(214.564 253.801)" fill="#589bea"/>
    <rect id="Rectangle_20" data-name="Rectangle 20" width="704.052" height="12.244" transform="translate(177.831 265.513)" fill="#f60"/>
  </g>
</svg>
