<svg xmlns="http://www.w3.org/2000/svg" xmlns:xlink="http://www.w3.org/1999/xlink" width="596.786" height="861.101" viewBox="0 0 596.786 861.101">
  <defs>
    <filter id="Rectangle_7" x="221.213" y="80.483" width="375.573" height="243.352" filterUnits="userSpaceOnUse">
      <feOffset dy="3" input="SourceAlpha"/>
      <feGaussianBlur stdDeviation="3" result="blur"/>
      <feFlood flood-opacity="0.161"/>
      <feComposite operator="in" in2="blur"/>
      <feComposite in="SourceGraphic"/>
    </filter>
    <filter id="Rectangle_8" x="221.213" y="0" width="375.573" height="75.488" filterUnits="userSpaceOnUse">
      <feOffset dy="3" input="SourceAlpha"/>
      <feGaussianBlur stdDeviation="3" result="blur-2"/>
      <feFlood flood-opacity="0.161"/>
      <feComposite operator="in" in2="blur-2"/>
      <feComposite in="SourceGraphic"/>
    </filter>
    <filter id="Rectangle_11" x="516.699" y="0" width="80.087" height="75.488" filterUnits="userSpaceOnUse">
      <feOffset dy="3" input="SourceAlpha"/>
      <feGaussianBlur stdDeviation="3" result="blur-3"/>
      <feFlood flood-opacity="0.161"/>
      <feComposite operator="in" in2="blur-3"/>
      <feComposite in="SourceGraphic"/>
    </filter>
    <filter id="Rectangle_7-2" x="152.646" y="429.853" width="304.615" height="231.018" filterUnits="userSpaceOnUse">
      <feOffset dy="3" input="SourceAlpha"/>
      <feGaussianBlur stdDeviation="3" result="blur-4"/>
      <feFlood flood-opacity="0.161"/>
      <feComposite operator="in" in2="blur-4"/>
      <feComposite in="SourceGraphic"/>
    </filter>
    <filter id="Rectangle_8-2" x="189.959" y="372.963" width="279.394" height="112.361" filterUnits="userSpaceOnUse">
      <feOffset dy="3" input="SourceAlpha"/>
      <feGaussianBlur stdDeviation="3" result="blur-5"/>
      <feFlood flood-opacity="0.161"/>
      <feComposite operator="in" in2="blur-5"/>
      <feComposite in="SourceGraphic"/>
    </filter>
    <filter id="Rectangle_11-2" x="398.828" y="417.359" width="70.524" height="67.964" filterUnits="userSpaceOnUse">
      <feOffset dy="3" input="SourceAlpha"/>
      <feGaussianBlur stdDeviation="3" result="blur-6"/>
      <feFlood flood-opacity="0.161"/>
      <feComposite operator="in" in2="blur-6"/>
      <feComposite in="SourceGraphic"/>
    </filter>
    <filter id="Rectangle_7-3" x="0" y="680.467" width="200.132" height="180.634" filterUnits="userSpaceOnUse">
      <feOffset dy="3" input="SourceAlpha"/>
      <feGaussianBlur stdDeviation="3" result="blur-7"/>
      <feFlood flood-opacity="0.161"/>
      <feComposite operator="in" in2="blur-7"/>
      <feComposite in="SourceGraphic"/>
    </filter>
    <filter id="Rectangle_8-3" x="55.13" y="650.733" width="162.868" height="118.617" filterUnits="userSpaceOnUse">
      <feOffset dy="3" input="SourceAlpha"/>
      <feGaussianBlur stdDeviation="3" result="blur-8"/>
      <feFlood flood-opacity="0.161"/>
      <feComposite operator="in" in2="blur-8"/>
      <feComposite in="SourceGraphic"/>
    </filter>
    <filter id="Rectangle_11-3" x="164.299" y="716.328" width="53.7" height="53.022" filterUnits="userSpaceOnUse">
      <feOffset dy="3" input="SourceAlpha"/>
      <feGaussianBlur stdDeviation="3" result="blur-9"/>
      <feFlood flood-opacity="0.161"/>
      <feComposite operator="in" in2="blur-9"/>
      <feComposite in="SourceGraphic"/>
    </filter>
  </defs>
  <g id="Group_21" data-name="Group 21" transform="translate(-1229.501 -199.083)">
    <g id="Group_18" data-name="Group 18" transform="translate(-18.286 -164.917)">
      <g transform="matrix(1, 0, 0, 1, 1247.79, 364)" filter="url(#Rectangle_7)">
        <rect id="Rectangle_7-4" data-name="Rectangle 7" width="357.573" height="225.351" rx="30" transform="translate(230.21 86.48)" fill="#fff"/>
      </g>
      <g transform="matrix(1, 0, 0, 1, 1247.79, 364)" filter="url(#Rectangle_8)">
        <rect id="Rectangle_8-4" data-name="Rectangle 8" width="357.573" height="57.488" rx="25" transform="translate(230.21 6)" fill="#fff"/>
      </g>
      <g transform="matrix(1, 0, 0, 1, 1247.79, 364)" filter="url(#Rectangle_11)">
        <path id="Rectangle_11-4" data-name="Rectangle 11" d="M0,0H37.087a25,25,0,0,1,25,25v7.488a25,25,0,0,1-25,25H0a0,0,0,0,1,0,0V0A0,0,0,0,1,0,0Z" transform="translate(525.7 6)" fill="#f60"/>
      </g>
      <g id="Group_17" data-name="Group 17" transform="translate(1783.834 394.145)">
        <circle id="Ellipse_24" data-name="Ellipse 24" cx="4.599" cy="4.599" r="4.599" transform="translate(0 0)" fill="#fff"/>
        <circle id="Ellipse_25" data-name="Ellipse 25" cx="4.599" cy="4.599" r="4.599" transform="translate(13.797 0)" fill="#fff"/>
        <circle id="Ellipse_26" data-name="Ellipse 26" cx="4.599" cy="4.599" r="4.599" transform="translate(27.594 0)" fill="#fff"/>
      </g>
      <rect id="Rectangle_12" data-name="Rectangle 12" width="229.95" height="22.995" rx="10" transform="translate(1514.792 387.246)" fill="#e6e6e6"/>
      <rect id="Rectangle_13" data-name="Rectangle 13" width="289.738" height="22.995" rx="10" transform="translate(1512.493 497.623)" fill="#e6e6e6"/>
      <rect id="Rectangle_14" data-name="Rectangle 14" width="289.738" height="22.995" rx="10" transform="translate(1512.493 532.115)" fill="#e6e6e6"/>
      <rect id="Rectangle_15" data-name="Rectangle 15" width="289.738" height="22.995" rx="10" transform="translate(1512.493 566.608)" fill="#e6e6e6"/>
      <rect id="Rectangle_16" data-name="Rectangle 16" width="289.738" height="22.995" rx="10" transform="translate(1512.493 605.699)" fill="#e6e6e6"/>
    </g>
    <g id="Group_19" data-name="Group 19" transform="matrix(0.978, 0.208, -0.208, 0.978, 68.323, -91.162)">
      <g transform="matrix(0.98, -0.21, 0.21, 0.98, 1196.15, 42.48)" filter="url(#Rectangle_7-2)">
        <rect id="Rectangle_7-5" data-name="Rectangle 7" width="258.403" height="162.852" rx="30" transform="matrix(0.98, 0.21, -0.21, 0.98, 195.5, 435.85)" fill="#fff"/>
      </g>
      <g transform="matrix(0.98, -0.21, 0.21, 0.98, 1196.15, 42.48)" filter="url(#Rectangle_8-2)">
        <rect id="Rectangle_8-5" data-name="Rectangle 8" width="258.403" height="41.544" rx="20.772" transform="matrix(0.98, 0.21, -0.21, 0.98, 207.6, 378.96)" fill="#fff"/>
      </g>
      <g transform="matrix(0.98, -0.21, 0.21, 0.98, 1196.15, 42.48)" filter="url(#Rectangle_11-2)">
        <path id="Rectangle_11-5" data-name="Rectangle 11" d="M0,0H24.1A20.772,20.772,0,0,1,44.867,20.772v0A20.772,20.772,0,0,1,24.1,41.544H0a0,0,0,0,1,0,0V0A0,0,0,0,1,0,0Z" transform="matrix(0.98, 0.21, -0.21, 0.98, 416.47, 423.36)" fill="#f60"/>
      </g>
      <g id="Group_17-2" data-name="Group 17" transform="translate(1699.013 387.448)">
        <circle id="Ellipse_24-2" data-name="Ellipse 24" cx="3.324" cy="3.324" r="3.324" fill="#fff"/>
        <circle id="Ellipse_25-2" data-name="Ellipse 25" cx="3.324" cy="3.324" r="3.324" transform="translate(9.971)" fill="#fff"/>
        <circle id="Ellipse_26-2" data-name="Ellipse 26" cx="3.324" cy="3.324" r="3.324" transform="translate(19.941)" fill="#fff"/>
      </g>
      <rect id="Rectangle_12-2" data-name="Rectangle 12" width="166.175" height="16.618" rx="8.309" transform="translate(1504.588 382.463)" fill="#e6e6e6"/>
      <rect id="Rectangle_13-2" data-name="Rectangle 13" width="209.381" height="16.618" rx="8.309" transform="translate(1502.926 462.227)" fill="#e6e6e6"/>
      <rect id="Rectangle_14-2" data-name="Rectangle 14" width="209.381" height="16.618" rx="8.309" transform="translate(1502.926 487.154)" fill="#e6e6e6"/>
      <rect id="Rectangle_15-2" data-name="Rectangle 15" width="209.381" height="16.618" rx="8.309" transform="translate(1502.926 512.08)" fill="#e6e6e6"/>
      <rect id="Rectangle_16-2" data-name="Rectangle 16" width="209.381" height="16.618" rx="8.309" transform="translate(1502.926 540.33)" fill="#e6e6e6"/>
    </g>
    <g id="Group_20" data-name="Group 20" transform="translate(230.064 -222.563) rotate(31)">
      <g transform="matrix(0.86, -0.52, 0.52, 0.86, 1073.85, -153.33)" filter="url(#Rectangle_7-3)">
        <rect id="Rectangle_7-6" data-name="Rectangle 7" width="154.12" height="97.13" rx="30" transform="translate(59.03 686.47) rotate(31)" fill="#fff"/>
      </g>
      <g transform="matrix(0.86, -0.52, 0.52, 0.86, 1073.85, -153.33)" filter="url(#Rectangle_8-3)">
        <rect id="Rectangle_8-6" data-name="Rectangle 8" width="154.12" height="24.778" rx="12.389" transform="translate(76.89 656.73) rotate(31)" fill="#fff"/>
      </g>
      <g transform="matrix(0.86, -0.52, 0.52, 0.86, 1073.85, -153.33)" filter="url(#Rectangle_11-3)">
        <path id="Rectangle_11-6" data-name="Rectangle 11" d="M0,0H14.371A12.389,12.389,0,0,1,26.76,12.389v0A12.389,12.389,0,0,1,14.371,24.778H0a0,0,0,0,1,0,0V0A0,0,0,0,1,0,0Z" transform="translate(186.06 722.33) rotate(31)" fill="#f60"/>
      </g>
      <g id="Group_17-3" data-name="Group 17" transform="translate(1609.82 380.407)">
        <circle id="Ellipse_24-3" data-name="Ellipse 24" cx="1.982" cy="1.982" r="1.982" fill="#fff"/>
        <circle id="Ellipse_25-3" data-name="Ellipse 25" cx="1.982" cy="1.982" r="1.982" transform="translate(5.947)" fill="#fff"/>
        <circle id="Ellipse_26-3" data-name="Ellipse 26" cx="1.982" cy="1.982" r="1.982" transform="translate(11.893)" fill="#fff"/>
      </g>
      <rect id="Rectangle_12-3" data-name="Rectangle 12" width="99.112" height="9.911" rx="4.956" transform="translate(1493.858 377.433)" fill="#e6e6e6"/>
      <rect id="Rectangle_13-3" data-name="Rectangle 13" width="124.882" height="9.911" rx="4.956" transform="translate(1492.867 425.007)" fill="#e6e6e6"/>
      <rect id="Rectangle_14-3" data-name="Rectangle 14" width="124.882" height="9.911" rx="4.956" transform="translate(1492.867 439.874)" fill="#e6e6e6"/>
      <rect id="Rectangle_15-3" data-name="Rectangle 15" width="124.882" height="9.911" rx="4.956" transform="translate(1492.867 454.741)" fill="#e6e6e6"/>
      <rect id="Rectangle_16-3" data-name="Rectangle 16" width="124.882" height="9.911" rx="4.956" transform="translate(1492.867 471.59)" fill="#e6e6e6"/>
    </g>
  </g>
</svg>
